<?xml version="1.0" encoding="UTF-8"?>
<svg id="Layer_1" data-name="Layer 1" xmlns="http://www.w3.org/2000/svg" xmlns:xlink="http://www.w3.org/1999/xlink" viewBox="0 0 493.8 111.74">
  <defs>
    <style>
      .cls-1 {
        fill: url(#linear-gradient);
      }
    </style>
    <linearGradient id="linear-gradient" x1="0" y1="55.87" x2="493.8" y2="55.87" gradientUnits="userSpaceOnUse">
      <stop offset="0" stop-color="#ed1c24"/>
      <stop offset=".54" stop-color="#ff4a1f"/>
      <stop offset="1" stop-color="#eb531f"/>
    </linearGradient>
  </defs>
  <path class="cls-1" d="M0,3.45h74.44c5.79,0,10.83.92,15.13,2.77,4.29,1.85,7.86,4.32,10.71,7.41,2.85,3.1,4.99,6.62,6.44,10.56,1.45,3.95,2.17,7.96,2.17,12.06,0,3.2-.45,6.34-1.35,9.44-.9,3.1-2.22,6.02-3.97,8.76-1.75,2.75-3.95,5.19-6.59,7.34-2.65,2.15-5.72,3.82-9.21,5.02l32.2,41.49h-31.61l-27.71-39.25h-24.12v39.25H11.23V22.47L0,3.45ZM36.55,47.93h31.75c4.79,0,8.39-1.22,10.78-3.67,2.4-2.45,3.59-5.12,3.59-8.01s-1.2-5.57-3.59-8.01c-2.4-2.45-5.99-3.67-10.78-3.67h-31.75v23.37ZM245.8,55.87c0,9.39-1.82,17.58-5.47,24.57-3.65,6.99-8.34,12.81-14.08,17.45-5.74,4.64-12.13,8.11-19.17,10.41-7.04,2.3-14.01,3.45-20.9,3.45s-13.88-1.15-20.97-3.45c-7.09-2.3-13.51-5.77-19.25-10.41-5.74-4.64-10.44-10.46-14.08-17.45-3.65-6.99-5.47-15.18-5.47-24.57,0-8.79,1.57-16.5,4.72-23.14,3.15-6.64,7.31-12.26,12.51-16.85l-9.29-15.88,50.78.15h1.05c6.89,0,13.86,1.15,20.9,3.45,7.04,2.3,13.43,5.77,19.17,10.41,5.74,4.64,10.43,10.44,14.08,17.38,3.64,6.94,5.47,15.11,5.47,24.49ZM220.04,55.87c0-5.39-1.03-10.09-3.07-14.08-2.05-3.99-4.72-7.31-8.01-9.96-3.3-2.65-6.94-4.62-10.93-5.92-3.99-1.3-7.94-1.95-11.83-1.95s-7.86.65-11.91,1.95c-4.04,1.3-7.71,3.27-11.01,5.92-3.3,2.65-5.97,5.97-8.01,9.96-2.05,3.99-3.07,8.69-3.07,14.08s1.02,10.06,3.07,14.01c2.05,3.95,4.72,7.24,8.01,9.89,3.3,2.65,6.97,4.62,11.01,5.92,4.04,1.3,8.01,1.95,11.91,1.95s7.84-.65,11.83-1.95c3.99-1.3,7.64-3.27,10.93-5.92,3.3-2.65,5.97-5.94,8.01-9.89,2.05-3.94,3.07-8.61,3.07-14.01ZM362.19,3.45v21.12h-93.62l-11.23-21.12h104.85ZM362.19,45.39v20.97h-93.62l-11.23-20.97h104.85ZM362.19,87.18v21.12h-93.17l-11.23-21.12h104.4ZM409.37,108.3l26.36-34.15,26.61,34.15h31.45l-42.79-53.77-.15-.45L489.8,3.45h-29.81l-24.71,31.16-24.71-31.16h-29.96l39.39,50.48-43.14,54.37h32.5Z"/>
</svg>